<svg width="104" height="57" viewBox="0 0 104 57" fill="none" xmlns="http://www.w3.org/2000/svg">
<path d="M0 16.4355C0 15.7168 0.134766 15.0654 0.404297 14.4814C0.71875 13.8525 1.30273 13.5381 2.15625 13.5381C2.875 13.5381 3.57129 14.2793 4.24512 15.7617C4.96387 17.2441 5.68262 19.1533 6.40137 21.4893C7.16504 23.7803 7.95117 26.3184 8.75977 29.1035C9.56836 31.8438 10.4219 34.5166 11.3203 37.1221C12.2188 39.6826 13.1621 41.9961 14.1504 44.0625C15.1387 46.084 16.1943 47.499 17.3174 48.3076C18.3955 47.8584 19.249 47.0723 19.8779 45.9492C20.5518 44.7812 21.0908 43.4111 21.4951 41.8389C21.8994 40.2217 22.1914 38.4922 22.3711 36.6504C22.5957 34.7637 22.7979 32.8994 22.9775 31.0576C23.2021 29.1709 23.4268 27.3516 23.6514 25.5996C23.876 23.8027 24.1904 22.2305 24.5947 20.8828C25.0439 19.5352 25.6055 18.457 26.2793 17.6484C26.9531 16.8398 27.8066 16.4355 28.8398 16.4355C29.4688 16.4355 30.0303 16.5029 30.5244 16.6377C31.0186 16.7275 31.4453 17.1768 31.8047 17.9854C31.9844 18.5693 32.2764 19.4229 32.6807 20.5459C33.085 21.6689 33.5342 22.9717 34.0283 24.4541C34.5674 25.9365 35.1514 27.5312 35.7803 29.2383C36.4541 30.9004 37.1279 32.54 37.8018 34.1572C38.5205 35.7744 39.2168 37.3242 39.8906 38.8066C40.5645 40.2441 41.2158 41.4795 41.8447 42.5127C41.9346 42.6924 42.1592 42.9844 42.5186 43.3887C42.9229 43.748 43.1924 43.9502 43.3271 43.9951L46.2246 41.0977C46.9883 40.334 47.5723 39.2109 47.9766 37.7285C48.3809 36.2012 48.6729 34.4492 48.8525 32.4727C49.0771 30.4961 49.2119 28.3848 49.2568 26.1387C49.3467 23.8477 49.4141 21.5791 49.459 19.333C49.5039 17.0869 49.5938 14.9082 49.7285 12.7969C49.8633 10.6855 50.0879 8.84375 50.4023 7.27148C50.7168 5.6543 51.166 4.37402 51.75 3.43066C52.334 2.4873 53.1426 2.01562 54.1758 2.01562C54.2207 2.01562 54.2656 2.03809 54.3105 2.08301C54.4004 2.08301 54.4902 2.08301 54.5801 2.08301C54.7148 2.12793 54.8047 2.15039 54.8496 2.15039C54.8945 2.15039 55.0068 2.24023 55.1865 2.41992C55.3662 2.55469 55.5234 2.68945 55.6582 2.82422C55.8379 2.95898 55.9727 3.09375 56.0625 3.22852C56.1973 3.36328 56.2871 3.47559 56.332 3.56543C56.332 3.87988 56.332 4.44141 56.332 5.25C56.377 6.05859 56.3994 6.93457 56.3994 7.87793C56.3994 8.82129 56.3994 9.71973 56.3994 10.5732C56.4443 11.3818 56.4668 11.9434 56.4668 12.2578C56.4668 13.1562 56.4443 14.3916 56.3994 15.9639C56.3994 17.5361 56.332 19.333 56.1973 21.3545C56.1074 23.3311 55.9502 25.4648 55.7256 27.7559C55.5459 30.002 55.2539 32.248 54.8496 34.4941C54.4453 36.6953 53.9287 38.8291 53.2998 40.8955C52.7158 42.917 51.9746 44.7139 51.0762 46.2861C50.2227 47.8135 49.2119 49.0488 48.0439 49.9922C46.9209 50.8906 45.5732 51.3398 44.001 51.3398C42.4736 51.3398 41.1709 50.8457 40.0928 49.8574C39.0596 48.8242 38.1611 47.5664 37.3975 46.084C36.6338 44.5566 35.9824 42.917 35.4434 41.165C34.9043 39.3682 34.3428 37.7061 33.7588 36.1787C33.2197 34.6514 32.6133 33.3936 31.9395 32.4053C31.3105 31.3721 30.5244 30.8555 29.5811 30.8555C29.4912 30.8555 29.3564 30.8779 29.1768 30.9229C29.042 30.9678 28.9297 30.9902 28.8398 30.9902C28.7949 31.1699 28.6602 31.9561 28.4355 33.3486C28.2109 34.7412 27.8965 36.4033 27.4922 38.335C27.0879 40.2217 26.5938 42.2656 26.0098 44.4668C25.4258 46.668 24.752 48.6895 23.9883 50.5312C23.2695 52.373 22.4609 53.9229 21.5625 55.1807C20.709 56.3936 19.7656 57 18.7324 57C16.6211 57 14.6895 56.2139 12.9375 54.6416C11.1855 53.0244 9.61328 50.958 8.2207 48.4424C6.87305 45.8818 5.68262 43.0518 4.64941 39.9521C3.61621 36.8525 2.74023 33.8203 2.02148 30.8555C1.34766 27.8457 0.831055 25.0605 0.47168 22.5C0.157227 19.8945 0 17.873 0 16.4355ZM63.542 54.1025C63.3623 53.3838 63.1152 52.3506 62.8008 51.0029C62.5312 49.6553 62.2168 48.1729 61.8574 46.5557C61.543 44.9385 61.2285 43.2539 60.9141 41.502C60.5996 39.7051 60.3076 37.9756 60.0381 36.3135C59.7686 34.6064 59.5439 33.0566 59.3643 31.6641C59.2295 30.2266 59.1621 29.0586 59.1621 28.1602C59.1621 27.7559 59.207 27.0596 59.2969 26.0713C59.3867 25.083 59.5215 24.0498 59.7012 22.9717C59.8809 21.8936 60.0381 20.8828 60.1729 19.9395C60.3525 18.9961 60.5098 18.3447 60.6445 17.9854C60.7793 17.9404 61.0039 17.918 61.3184 17.918C61.6777 17.918 62.0371 17.8955 62.3965 17.8506C62.8008 17.8057 63.1602 17.7832 63.4746 17.7832C63.834 17.7383 64.0811 17.7158 64.2158 17.7158C66.3721 17.7158 68.416 18.1426 70.3477 18.9961C72.2793 19.8496 74.1211 20.9277 75.873 22.2305C77.625 23.5332 79.332 24.9932 80.9941 26.6104C82.6562 28.2275 84.3184 29.7998 85.9805 31.3271C87.6875 32.8545 89.417 34.2471 91.1689 35.5049C92.9209 36.7178 94.7852 37.6387 96.7617 38.2676C96.7617 38.043 96.7617 37.7061 96.7617 37.2568C96.8066 36.7627 96.8291 36.2461 96.8291 35.707C96.8291 35.168 96.8291 34.6738 96.8291 34.2246C96.874 33.7305 96.8965 33.3711 96.8965 33.1465C96.8965 30.3164 96.7168 27.5537 96.3574 24.8584C95.998 22.1631 95.5938 19.4678 95.1445 16.7725C94.6953 14.0771 94.291 11.3818 93.9316 8.68652C93.5723 5.94629 93.3926 3.13867 93.3926 0.263672C93.707 0.263672 94.0889 0.286133 94.5381 0.331055C95.0322 0.331055 95.5264 0.398438 96.0205 0.533203C96.5146 0.623047 96.9639 0.802734 97.3682 1.07227C97.7725 1.29688 98.042 1.65625 98.1768 2.15039C98.3564 5.38477 98.7607 8.6416 99.3896 11.9209C100.019 15.1553 100.67 18.4121 101.344 21.6914C102.018 24.9258 102.602 28.1826 103.096 31.4619C103.635 34.6963 103.904 37.9082 103.904 41.0977C103.904 41.6816 103.882 42.3105 103.837 42.9844C103.837 43.6582 103.747 44.3096 103.567 44.9385C103.433 45.5225 103.186 46.0166 102.826 46.4209C102.467 46.8252 101.928 47.0273 101.209 47.0273C98.873 47.0273 96.7168 46.5107 94.7402 45.4775C92.7637 44.3994 90.832 43.0742 88.9453 41.502C87.1035 39.9297 85.2842 38.2002 83.4873 36.3135C81.7354 34.4268 79.916 32.6973 78.0293 31.125C76.1875 29.5527 74.2559 28.2275 72.2344 27.1494C70.2578 26.0713 68.124 25.5322 65.833 25.5322C65.833 28.0479 66.0127 30.4736 66.3721 32.8096C66.7314 35.1006 67.1133 37.3916 67.5176 39.6826C67.9668 41.9736 68.3711 44.2646 68.7305 46.5557C69.0898 48.8018 69.2695 51.0928 69.2695 53.4287C69.2695 54.2822 68.9551 54.8662 68.3262 55.1807C67.7422 55.4951 67.0908 55.6523 66.3721 55.6523C65.7881 55.6523 65.2266 55.6074 64.6875 55.5176C64.1934 55.3828 63.8115 54.9111 63.542 54.1025Z" fill="white"/>
</svg>
